# xmcd
#
# Track frame offsets: 
#        150
#        14342
#        31805
#        47290
#        64772
#        83070
#        100182
#        112725
#        130702
#        148722
#        165720
#
# Disc length: 2453 seconds
#
# Revision: 1
# Processed by: cddbd v1.5.2PL0 Copyright (c) Steve Scherf et al.
# Submitted via: ExactAudioCopy v1.0b3
#
DISCID=7e09930b
DTITLE=謝霆鋒 - Horizons
DYEAR=1998
DGENRE=Top 40
TTITLE0=開放日[粵]
TTITLE1=如果只得一星期[粵]
TTITLE2=早知[粵]
TTITLE3=謝謝你等我[粵]
TTITLE4=前前後後左左右右[粵]
TTITLE5=你情人在那裡[粵]
TTITLE6=入口愛情[粵]
TTITLE7=大世界[粵]
TTITLE8=天空這麼大[粵]
TTITLE9=活火山[粵]
TTITLE10=無聲彷有聲[粵][二十四號八點見面版]
EXTD=
EXTT0=
EXTT1=
EXTT2=
EXTT3=
EXTT4=
EXTT5=
EXTT6=
EXTT7=
EXTT8=
EXTT9=
EXTT10=
PLAYORDER=
